<?xml version="1.0" standalone="no"?>
<!DOCTYPE svg PUBLIC "-//W3C//DTD SVG 20010904//EN"
 "http://www.w3.org/TR/2001/REC-SVG-20010904/DTD/svg10.dtd">
<svg version="1.0" xmlns="http://www.w3.org/2000/svg"
 width="472.000000pt" height="472.000000pt" viewBox="0 0 472.000000 472.000000"
 preserveAspectRatio="xMidYMid meet">
<metadata>
Created by potrace 1.11, written by Peter Selinger 2001-2013
</metadata>
<g transform="translate(0.000000,472.000000) scale(0.100000,-0.100000)"
fill="#000000" stroke="none">
<path d="M2524 4380 c-49 -15 -57 -32 -54 -113 7 -149 4 -166 -79 -379 -43
-112 -116 -300 -161 -418 -45 -118 -107 -278 -136 -355 -103 -264 -163 -421
-353 -915 -235 -612 -224 -584 -231 -590 -3 -3 -6 -12 -6 -20 -1 -8 -58 -162
-128 -341 -136 -356 -148 -405 -126 -514 30 -148 117 -261 249 -324 67 -32 86
-36 173 -39 54 -3 98 0 98 4 0 5 15 10 32 11 18 2 34 7 36 13 2 5 15 10 29 10
40 0 193 119 193 150 0 5 4 10 9 10 4 0 16 21 26 48 10 26 23 61 30 77 8 17
40 102 73 190 33 88 89 234 125 325 35 91 93 239 127 330 35 91 68 179 76 195
7 17 58 152 114 300 56 149 108 284 116 300 7 17 26 67 42 110 17 44 46 121
65 170 20 50 59 151 87 225 29 74 55 140 58 145 4 6 8 17 9 25 1 8 25 74 53
145 29 72 72 184 97 250 135 361 140 371 230 464 45 47 83 93 83 101 0 17 -33
73 -58 99 -99 102 -381 237 -607 292 -95 22 -247 32 -291 19z m298 -114 c130
-25 322 -105 385 -160 52 -47 62 -59 57 -67 -3 -5 0 -9 7 -9 8 0 8 -4 -1 -15
-7 -8 -21 -15 -30 -15 -10 0 -20 -6 -23 -12 -3 -10 -7 -10 -18 -2 -8 6 -37 14
-66 17 -119 13 -388 130 -442 193 -35 40 -39 59 -13 73 24 14 58 13 144 -3z"/>
</g>
</svg>
